# xmcd
#
# Track frame offsets:
#	150
#	12747
#	24168
#	36258
#	47970
#	60368
#	72654
#	86071
#	97949
#	110027
#	122569
#	135041
#	146535
#	159901
#	172083
#	184563
#	196481
#	209354
#	219134
#	237918
#	252139
#	262704
#	277769
#	289093
#	300283
#	308716
#
# Disc length: 4310 seconds
# Revision: 0
# Processed by: cddbd v1.5.2PL0 Copyright (c) Steve Scherf et al.
# Submitted via: dBpowerAMP V12.0
#
DISCID=5f10d41a
DTITLE=Bob Wills and His Texas Playboys - Take Me Back To Tulsa, Disc 3 of 4
DYEAR=2001
DGENRE=Country
TTITLE0=We Might as Well Forget It
TTITLE1=Home in San Antone
TTITLE2=Liberty
TTITLE3=Miss Molly
TTITLE4=You're from Texas
TTITLE5=Goodbye Liza Jane
TTITLE6=My Confession
TTITLE7=Texas Playboy Rag
TTITLE8=Roly Poly
TTITLE9=Stay a Little Longer
TTITLE10=Just a Plain Old Country Boy
TTITLE11=New Spanish Two-Step
TTITLE12=I'm Feelin' Bad
TTITLE13=Cotton Eyed Joe
TTITLE14=Brain Cloudy Blues
TTITLE15=Bob Wills Boogie
TTITLE16=Fat Boy Rag
TTITLE17=A Good Man Is Hard to Find
TTITLE18=A Little Bit of Boogie
TTITLE19=Along the Navajo Trail
TTITLE20=Baby Won't You Please Come Home
TTITLE21=Betcha My Heart
TTITLE22=China Town
TTITLE23=Dinah
TTITLE24=Frankie Jean
TTITLE25=Hawaiian War Chant
EXTD=
EXTT0=
EXTT1=
EXTT2=
EXTT3=
EXTT4=
EXTT5=
EXTT6=
EXTT7=
EXTT8=
EXTT9=
EXTT10=
EXTT11=
EXTT12=
EXTT13=
EXTT14=
EXTT15=
EXTT16=
EXTT17=
EXTT18=
EXTT19=
EXTT20=
EXTT21=
EXTT22=
EXTT23=
EXTT24=
EXTT25=
PLAYORDER=
